<?xml version="1.0" encoding="utf-8"?>
<!-- Generator: Adobe Illustrator 25.0.0, SVG Export Plug-In . SVG Version: 6.00 Build 0)  -->
<svg version="1.1" xmlns="http://www.w3.org/2000/svg" xmlns:xlink="http://www.w3.org/1999/xlink" x="0px" y="0px"
	 viewBox="0 0 500 500" style="enable-background:new 0 0 500 500;" xml:space="preserve">
<style type="text/css">
	.st0{fill-rule:evenodd;clip-rule:evenodd;fill:#91D9F2;}
	.st1{clip-path:url(#SVGID_2_);}
	.st2{fill-rule:evenodd;clip-rule:evenodd;fill:#FFDDB2;}
	.st3{fill-rule:evenodd;clip-rule:evenodd;fill:#FDD5A2;}
	.st4{fill-rule:evenodd;clip-rule:evenodd;fill:#EFBD80;}
	.st5{fill-rule:evenodd;clip-rule:evenodd;fill:#604530;}
	.st6{fill-rule:evenodd;clip-rule:evenodd;fill:#506F8B;}
	.st7{fill-rule:evenodd;clip-rule:evenodd;fill:#BF702B;}
	.st8{fill-rule:evenodd;clip-rule:evenodd;fill:#464E63;}
	.st9{fill-rule:evenodd;clip-rule:evenodd;fill:#27384E;}
	.st10{fill-rule:evenodd;clip-rule:evenodd;fill:#4F6D8B;}
	.st11{fill-rule:evenodd;clip-rule:evenodd;fill:#475A7E;}
</style>
<g id="OBJECTS">
	<g>
		<circle class="st0" cx="250" cy="250" r="234.1"/>
		<g>
			<defs>
				<circle id="SVGID_1_" cx="250" cy="250" r="234.1"/>
			</defs>
			<clipPath id="SVGID_2_">
				<use xlink:href="#SVGID_1_"  style="overflow:visible;"/>
			</clipPath>
			<g class="st1">
				<path class="st2" d="M250.1,442.4l-155.5,0.2c-1.3,0,11.6-32.9,13.4-35.7c2.4-3.8,6.2-6,19.5-12.8c15.2-7.9,33.8-18.5,47.8-30.2
					c9.6-8,17.2-16.4,20.1-24.7c11.9-33.1,1.7-75.4,1.7-75.4H303c0,0-10.1,42.2,1.7,75.4c3,8.3,10.5,16.7,20.1,24.7
					c14.1,11.7,32.6,22.3,47.8,30.2c13.3,6.9,17.1,9.1,19.5,12.8c6.8,10.5,10.2,23.3,13.3,35.3C405.6,442.9,262.9,442.4,250.1,442.4
					z"/>
				<path class="st3" d="M181.6,218c0,0-20.5,17,6.7,30.2l3.7-23.7L181.6,218z"/>
				<path class="st3" d="M317.8,217.7c0,0,21.2,17.6-5.9,30.8l-3.1-24L317.8,217.7z"/>
				<path class="st4" d="M164.9,371.8c0,0,17.6,2.8,63.2-31.7c45.5-34.5,44.3-31.5,47.9-47.5c3.6-16-51.5-15.6-51.5-15.6l-25.7-4.9
					c0,0,4.1,33.5-0.7,58.3C194.2,350.4,179.5,360.6,164.9,371.8z"/>
				<path class="st2" d="M209.8,285.7c22.3,22.4,48,34.5,73.3,10.4c20.8-19.9,27.5-32,32.2-59c4.6-26.6,4.3-51.8,3-82.4
					c-0.3-6.6-2.1-13.5-5.9-19.9c-7.9-13.1-24.6-23.9-55.1-25.2c-35.2-1.5-62.2,6.6-74.4,36.7c-4.9,12.1-2.7,29.3-2,44.9
					C182.4,227.2,182.2,258,209.8,285.7z"/>
				<path class="st5" d="M182.3,220c0,0,6.7-21.2,14.1-42c5.7-16,11.7-31.7,15.3-37.5l-21.9-25c0,0-19.3,9.4-17.7,42.1
					C173.7,190.4,182.3,220,182.3,220z"/>
				<path class="st5" d="M190.1,118.5c0,0,8,12.4,23.4,23.2c12.8,8.9,30.6,15.8,53.2,15.5c41.5-0.6,41.9-12,41.9-12
					c1.1,10.3,3.1,20.3,4.2,30.6c1.4,13.7,1.8,27.9,3.2,41.6c0,0,12.5-8.4,11.3-48.7c-1.2-40.3-14.3-59.1-44.9-59.9
					c-13.9-0.4-29.7-3-42.8-5.8c-17.6-3.8-23.6-10.9-37.8-0.7C195.4,107,188.5,113.3,190.1,118.5z"/>
				<path class="st6" d="M172.8,169.4c0,0-42.5-7.6-21.1-45.1c16.6-29,50.7-51.9,102.3-52.1c29-0.1,80,19.9,95.9,53.6
					c7.9,16.8,7.1,30.5-9.9,40.3c-5.2,3-12.1,4.8-21.2,4.1L172.8,169.4z"/>
				<path class="st7" d="M235.7,104.4h9.8l6.3-5.8l6.6,5.5h10.3c0,0,2.9,22.2-13.2,24.3C239.3,130.5,233.8,115.7,235.7,104.4z"/>
				<path class="st8" d="M172.3,184.6l0.9-30.2c0,0,61.5-34.6,155.2-3.5l-0.4,34.1L172.3,184.6z"/>
				<path class="st9" d="M172.3,184.6c0,0,43.9,23.9,91.9,18.8c48-5.2,63.8-18.4,63.8-18.4S259.1,171,172.3,184.6z"/>
				<path class="st10" d="M250.1,486.9l-174,0.2c-1.3,0,30.2-77.4,32-80.3c2.4-3.8,6.2-6,19.5-12.8c15.2-7.9,33.7-18.6,47.7-30.3
					c2.4-2,4.7-3.9,6.8-5.9c20.7,16.9,48.5,20,74.7,18.8c26.2-1.2,46.8-2.9,64.4-16.1c1.2,1.1,2.5,2.2,3.7,3.2
					c14.1,11.7,32.6,22.3,47.8,30.2c13.3,6.9,17.1,9.1,19.5,12.8c6.8,10.5,28.8,67.9,31.9,79.9C424.2,487.5,262.9,487,250.1,486.9z"
					/>
				<path class="st11" d="M174.1,364.7c9.2-7.5,18.2-15.8,22-27.4c6,9,27.6,25.8,53.3,39.2c0,0-2.4,23.5-21.1,41.1
					C228.3,417.7,191,388.6,174.1,364.7z"/>
				<path class="st11" d="M325.8,364.6c-9.1-7.7-18-16-21.8-27.5c-6,9-28.9,26.1-54.6,39.5c0,0,3.5,23.5,22.2,41.1
					C271.6,417.7,308.9,388.5,325.8,364.6z"/>
				<polygon class="st9" points="236.4,487.2 232.7,436 244.7,416.7 225.5,401.4 242.6,378.1 256.8,378.1 273.9,401.4 254.6,416.7 
					266.7,436 262.9,487.2 				"/>
				<rect x="133.7" y="431.3" class="st9" width="47.5" height="11.1"/>
				<rect x="316.7" y="431.3" class="st9" width="47.5" height="11.1"/>
			</g>
		</g>
	</g>
</g>
<g id="DESIGNED_BY_FREEPIK">
</g>
</svg>
