<?xml version="1.0" encoding="utf-8"?>
<!-- Generator: Adobe Illustrator 25.0.0, SVG Export Plug-In . SVG Version: 6.00 Build 0)  -->
<svg version="1.1" id="Layer_1" xmlns="http://www.w3.org/2000/svg" xmlns:xlink="http://www.w3.org/1999/xlink" x="0px" y="0px"
	 viewBox="0 0 154 154" style="enable-background:new 0 0 154 154;" xml:space="preserve">
<style type="text/css">
	.st0{fill:#41454E;}
	.st1{fill:#19A4DF;}
	.st2{fill:#42464F;}
	.st3{fill:#43474F;}
	.st4{fill:#20A6E0;}
	.st5{fill:#454952;}
	.st6{fill:#464A52;}
	.st7{fill:#1DA5E0;}
	.st8{fill:#1EA6E0;}
</style>
<g>
	<path class="st0" d="M39,81.6c-2.7,0.7-5.3,1.4-8.2,2.2c1.1-2.3,2-4.3,3-6.4c0.2-0.4,0.2-0.9,0-1.3c-0.9-1.9-1.8-3.7-2.7-5.7
		c1.3-1.7,2.6-3.5,4-5.2c0.6-0.8,1-1.5,0.4-2.4c-0.1-0.1,0-0.2-0.1-0.3c-1.4-2.1-0.7-3.8,0.7-5.6c0.7-0.8,1.2-1.8,1.7-2.7
		c0.3-0.6,0.7-0.7,1.3-0.5c1.5,0.5,3.1,0.9,4.6,1.4c0.8,0.3,1.3,0.1,1.8-0.5c0.6-0.6,1.2-1.1,1.8-1.7c0.8,1.2,1.6,2.6,2.5,4
		c1-1.4,2-2.7,2.8-4.1c0.5-0.8,1-0.9,1.8-0.6c0.9,0.3,1.8,0.5,2.7,0.8c7.4-13.2,18.9-18.1,33.7-16.1c0.3,16.5,7,30.9,15.6,44.8
		c-13.8,0-27.6,0-41.6,0c0.5-5-0.9-9.3-4.9-12.4c-2.7-2.1-5.8-3.1-9.2-2.7c-3.8,0.4-6.8,2.1-9.2,5.1C39.3,74.5,38.6,77.9,39,81.6z
		 M73.8,56.1C73.8,56.1,73.8,56.1,73.8,56.1c3.6,0,7.2,0,10.8,0c2.1,0,3.4-1.3,3.4-3.3c0-2.6,0-5.3-0.1-7.9c0-1.8-1.3-3.4-3.1-3.5
		c-2.9-0.2-5.9-0.2-8.8,0.7c-5.7,1.9-10.1,5.6-13.7,10.4c-0.3,0.4-0.5,0.8-0.7,1.3c-0.4,1.4,0.3,2.4,1.8,2.4
		C66.9,56.1,70.4,56.1,73.8,56.1z"/>
	<path class="st1" d="M126.4,89.4c-4.3-0.3-7.4-1.7-10.3-3.8c-5-3.7-8.5-8.7-11.5-14.1c-3-5.4-5.5-11-7.3-16.9
		c-1.6-5-2.7-10-2.5-15.3c0.1-3.8,1-7.4,3.2-10.6c1.1-1.6,2.6-2.7,4.6-3c1.7-0.3,3.4-0.6,5.1-0.9c1.9-0.3,3.5,0.6,3.9,2.5
		c1,4.3,2,8.6,2.9,13c0.4,1.9-0.6,3.4-2.4,4c-1.5,0.5-3,1-4.5,1.3c-1.1,0.3-1.4,0.9-1.3,1.9c0.4,3.6,1.5,7.1,2.9,10.5
		c1.8,4.3,3.7,8.5,6.8,12c1.4,1.6,1.5,1.6,3.3,0.6c1.1-0.7,2.3-1.3,3.4-2c1.9-1.1,3.6-0.8,4.8,0.9c2.5,3.5,5,7.1,7.5,10.7
		c1,1.5,0.8,3.3-0.6,4.4c-1.5,1.3-3.1,2.6-4.8,3.6C128.4,88.9,127.1,89.2,126.4,89.4z"/>
	<path class="st2" d="M75.1,94.6c-1.5,2.2-2.8,4.2-4.2,6.3c1.3,0.1,2.5,0.1,3.6,0.3c3.5,0.6,5.9,2.7,7.3,5.9c1.3,2.9,1.4,6,1.3,9.2
		c-0.5,0-1,0-1.4,0c-11.6,0-23.2,0-34.8,0c-2.6,0-5.3,0-7.5-1.8c-2.2,6.5-9.3,8.4-14.6,7c-5.3-1.4-9.8-5.3-8.9-15.1
		c1.5,0,3.1,0,4.7,0c0,1.3,0,2.5,0,3.7c0.1,3.1,1.2,5.6,4.2,6.8c3.1,1.2,6.1,0.8,8.8-1.4c0.2-0.2,0.4-0.4,0.6-0.6
		c0.9-1.2,1.5-2.5,0.7-4c-0.7-1.4-2-1.8-3.6-1.7c0-1.3,0-2.6,0-3.9c3.3-1,7.5,0.7,9.1,3.8c1.1,2.1,2.6,2.9,4.8,2.8
		c0.8-0.1,1.7,0,2.5,0c1.9,0,2.8-0.8,2.8-2.8c0-2.4,0-4.7,0-7.1c0-0.3,0-0.5,0-0.9c1.6,0,3.1,0,4.5,0c0,3.5,0,7,0,10.6
		c7.4,0,15.1,0,22.7,0c-0.6-4-3.2-6.3-7.3-6.3c-2.6,0-5.3,0-8,0c2.2-3.5,4.3-6.8,6.4-10.2c0.2-0.3,0.7-0.6,1-0.6
		C71.7,94.5,73.3,94.6,75.1,94.6z"/>
	<path class="st2" d="M120.6,105.4c2.2-3.5,4.3-6.8,6.4-10.1c0.2-0.3,0.6-0.6,1-0.7c1.6-0.1,3.2,0,5,0c-1.4,2.2-2.8,4.2-4.2,6.4
		c0.6,0,1.1,0,1.5,0c4.6,0,8.1,2.3,9.7,6.6c1.1,2.8,1.3,5.7,1.1,8.7c-9.2,0-18.3,0-27.4,0c-1.8,4.3-5,6.1-9.3,5.5c0-1.2,0-2.4,0-3.5
		c0.1-0.1,0.2-0.1,0.2-0.1c3.4-0.4,4.4-1.6,4.4-5c0-3.6,0-7.2,0-10.8c0-0.4,0-0.8,0-1.2c1.6,0,3.1,0,4.7,0c0,3.6,0,7.1,0,10.7
		c7.4,0,14.8,0,22.1,0c0.1-2.8-2.5-5.9-5.7-6.2c-2.5-0.3-5.1-0.1-7.7-0.2C121.9,105.4,121.4,105.4,120.6,105.4z"/>
	<path class="st2" d="M51.8,69.5c5.5,0,10.1,4.5,10.1,10c0,5.5-4.5,10.1-10.1,10.1c-5.5,0-10-4.5-10-9.9
		C41.8,74.1,46.3,69.5,51.8,69.5z M51.9,84.5c2.7,0,5-2.3,5-5c0-2.7-2.3-4.9-5-5c-2.7,0-5,2.3-5,5C46.9,82.2,49.2,84.5,51.9,84.5z"
		/>
	<path class="st3" d="M97,115.6c-2.1,1.6-4.4,1.2-6.4,0.2c-4.7-2.3-4.9-7.8-3.2-11c1.9-3.7,6.7-5,10.5-2.9c2.6,1.4,3.6,3.8,3.7,6.7
		c0.1,2.4,0.1,4.8,0,7.2c-0.1,3.4-1.7,5.2-5,5.8c-1,0.2-2.1,0.2-3.2,0.3c0-1.3,0-2.5,0-3.7c1.6-0.3,3.3-0.6,3.9-2.5
		c0-0.1,0-0.3,0-0.4C97.1,115.4,97,115.5,97,115.6z M96.8,108.8c0-2.1-1.4-3.6-3.1-3.5c-1.6,0.1-2.8,1.9-2.6,3.8
		c0.2,1.9,1.5,3.2,3,3.1C95.7,112.1,96.8,110.7,96.8,108.8z"/>
	<path class="st4" d="M26.5,70.6c-1.5,2.7-2.9,5.4-4.3,8.1c2.5,0.2,5,0.4,7.5,0.6c-1.3,2.7-2.5,5.3-3.8,8.1c2.7-0.4,5.2-0.8,7.6-1.2
		c0,0.1,0,0.2,0,0.3c-3,0.7-6,1.4-9.3,2.2c1.1-2.7,2.1-5.3,3.3-8.2c-2.8,0-5.4,0-8.3,0c1.5-3,2.8-5.7,4.2-8.4
		c-4.1-0.8-8.1-1.6-12.3-2.5c3.8-2.7,7.4-5.3,11.1-7.9c-2.5-3-4.9-5.9-7.4-8.9c4.6,0,9.2,0,13.8,0c-0.6-2.9-1.2-5.8-1.8-8.9
		c3.8,2.1,7.4,4.2,11.1,6.2c0,0.1-0.1,0.2-0.1,0.3c-3-1.4-6-2.8-9.3-4.3c0.7,2.9,1.4,5.6,2.1,8.5c-3.9,0-7.6,0-11.7,0
		c2.2,2.6,4.3,5,6.4,7.5c-2.9,2.1-5.8,4.2-8.9,6.4C19.9,69.2,23.1,69.9,26.5,70.6z"/>
	<path class="st5" d="M142.8,57.1c0.2,3-0.5,5.8-1.4,8.6c0,0.2-0.1,0.4-0.2,0.4c-0.5,0.2-1,0.7-1.4,0.6c-0.7-0.1-0.6-0.8-0.4-1.3
		c1.2-3.4,1.7-6.8,1.4-10.4c-1-9.8-6-16.8-14.9-20.9c-0.1-0.1-0.2-0.1-0.3-0.1c-0.8-0.2-0.9-0.8-0.6-1.4c0.2-0.7,0.8-0.6,1.4-0.4
		c8.7,3.8,14,10.4,16.1,19.6c0.2,0.9,0.3,1.8,0.4,2.7C142.9,55.3,142.8,56.2,142.8,57.1z"/>
	<path class="st5" d="M135,57.5c-0.3,1.3-0.7,3.3-1.1,5.3c-0.2,0.8-0.7,1.3-1.5,1c-0.9-0.3-0.6-1-0.4-1.6c2.6-8-0.7-16.2-8-20.2
		c-0.5-0.2-1.1-0.3-1.4-0.7c-0.3-0.4-0.6-1-0.5-1.5c0.2-0.7,0.8-0.5,1.4-0.3C130.7,43,134.5,48.8,135,57.5z"/>
	<path class="st6" d="M126.9,57.2c-0.1,0.6-0.3,1.7-0.6,2.8c-0.2,0.7-0.6,1.2-1.4,0.9c-0.7-0.2-0.8-0.8-0.6-1.4
		c1.3-4.6-0.3-8.2-4.5-10.5c-0.6-0.3-1.3-0.5-0.9-1.4c0.4-0.8,1.1-0.8,1.8-0.4C124.7,49.3,126.7,52.4,126.9,57.2z"/>
	<path class="st7" d="M20.4,129.3c-1.5,0-2.7-1.2-2.7-2.7c0-1.5,1.3-2.7,2.8-2.7c1.5,0,2.7,1.2,2.7,2.8
		C23.1,128.2,21.9,129.3,20.4,129.3z"/>
	<path class="st7" d="M48.7,98.9c-1.5,0-2.8-1.2-2.8-2.7c0-1.5,1.2-2.8,2.7-2.8c1.4,0,2.8,1.3,2.8,2.7
		C51.4,97.5,50.2,98.8,48.7,98.9z"/>
	<path class="st8" d="M55.2,98.9c-1.5,0-2.8-1.2-2.8-2.7c0-1.4,1.2-2.8,2.7-2.8c1.4,0,2.8,1.2,2.8,2.7
		C57.9,97.6,56.7,98.8,55.2,98.9z"/>
	<path class="st8" d="M26.9,129.3c-1.5,0-2.8-1.2-2.8-2.7c0-1.4,1.3-2.7,2.8-2.7c1.5,0,2.7,1.2,2.7,2.7
		C29.6,128.1,28.5,129.3,26.9,129.3z"/>
</g>
</svg>
